<?xml version="1.0" encoding="utf-8"?><!-- Uploaded to: SVG Repo, www.svgrepo.com, Generator: SVG Repo Mixer Tools -->
<svg width="800px" height="800px" viewBox="0 0 24 24" id="Layer_1" data-name="Layer 1" xmlns="http://www.w3.org/2000/svg"><defs><style>.cls-1{fill:none;stroke:#020202;stroke-miterlimit:10;stroke-width:1.91px;}.cls-2{fill:#020202;}</style></defs><path class="cls-1" d="M18.68,5.32h1.91A1.9,1.9,0,0,1,22.5,7.23v9.54a1.9,1.9,0,0,1-1.91,1.91H3.41A1.9,1.9,0,0,1,1.5,16.77V7.23A1.9,1.9,0,0,1,3.41,5.32H6.27"/><path class="cls-1" d="M16.77,5.8a4.3,4.3,0,1,0-6.68,3.57v1.68h4.77V9.37A4.32,4.32,0,0,0,16.77,5.8Z"/><circle class="cls-2" cx="11.05" cy="6.27" r="0.95"/><circle class="cls-2" cx="13.91" cy="6.27" r="0.95"/><line class="cls-1" x1="12" y1="22.5" x2="12" y2="18.68"/><line class="cls-1" x1="16.77" y1="22.5" x2="7.23" y2="22.5"/></svg>