<?xml version="1.0" encoding="utf-8"?><!-- Uploaded to: SVG Repo, www.svgrepo.com, Generator: SVG Repo Mixer Tools -->
<svg width="800px" height="800px" viewBox="0 0 24 24" id="Layer_1" data-name="Layer 1" xmlns="http://www.w3.org/2000/svg"><defs><style>.cls-1{fill:none;stroke:#020202;stroke-miterlimit:10;stroke-width:1.91px;}.cls-2{fill:#020202;}</style></defs><path class="cls-1" d="M22.5,5.8a4.3,4.3,0,1,0-6.68,3.57v1.68h4.77V9.37A4.32,4.32,0,0,0,22.5,5.8Z"/><circle class="cls-2" cx="16.77" cy="6.27" r="0.95"/><circle class="cls-2" cx="19.64" cy="6.27" r="0.95"/><path class="cls-1" d="M22.5,19.64h0a2.86,2.86,0,0,1-2.86,2.86H4.36A2.86,2.86,0,0,1,1.5,19.64h0a1.9,1.9,0,0,1,1.91-1.91H9.14l.95.95h3.82l.95-.95h5.73A1.9,1.9,0,0,1,22.5,19.64Z"/><line class="cls-1" x1="20.59" y1="17.73" x2="20.59" y2="12.95"/><path class="cls-1" d="M3.41,17.73V7.23A1.92,1.92,0,0,1,5.32,5.32H12"/></svg>